#!OML:ASF F:\VICON\USERDATA\INSTALL\rory3\rory3.ASF
:FULLY-SPECIFIED
:DEGREES
227
root -0.559652 17.9579 6.87176 -16.4278 -64.4933 14.6712
lowerback 10.0832 2.42674 -3.30314
upperback 0.777527 2.73514 -1.60789
thorax -4.91865 1.38815 -0.207846
lowerneck -17.4159 -7.52954 -14.1325
upperneck 28.7631 -10.5766 11.2788
head 14.1593 -4.88582 5.02681
rclavicle -1.2424e-016 5.36719e-015
rhumerus -32.5014 -17.4605 -81.0104
rradius 27.355
rwrist 9.63471
rhand -14.5178 8.57561
rfingers 7.12502
rthumb 11.6298 -21.0816
lclavicle -1.2424e-016 5.36719e-015
lhumerus -37.8132 7.66214 79.5907
lradius 26.9477
lwrist -7.92779
lhand -18.4723 26.7596
lfingers 7.12502
lthumb 7.81453 56.5952
rfemur -3.82105 -3.70251 16.9466
rtibia 62.4741
rfoot 17.0333 4.9462
rtoes 20.13
lfemur -1.76856 -1.58535 -26.1608
ltibia 6.34529
lfoot -0.358022 -14.1213
ltoes -12.9925
228
root -0.682291 17.9664 6.93861 -17.2537 -64.8074 15.5104
lowerback 10.043 2.44889 -3.69752
upperback 0.777288 2.72124 -1.60125
thorax -4.91528 1.38909 0.022969
lowerneck -17.3892 -7.5619 -14.3259
upperneck 28.8088 -10.6051 11.3597
head 14.1982 -4.91264 5.09068
rclavicle 2.52457e-014 -4.96962e-015
rhumerus -32.7415 -17.2402 -80.8324
rradius 27.206
rwrist 9.86778
rhand -14.3 8.71926
rfingers 7.12502
rthumb 11.8399 -20.926
lclavicle 2.52457e-014 -4.96962e-015
lhumerus -37.5128 7.57216 79.631
lradius 26.8928
lwrist -8.28592
lhand -18.5631 26.6028
lfingers 7.12502
lthumb 7.72681 56.4416
rfemur -5.14606 -4.0961 16.4854
rtibia 64.4381
rfoot 16.0208 4.02256
rtoes 17.5641
lfemur -0.130265 -1.2904 -26.4629
ltibia 4.25913
lfoot 0.612495 -13.9236
ltoes -10.9904
229
root -0.802652 17.9723 7.00629 -17.7631 -65.1907 16.004
lowerback 10.0179 2.48594 -3.90636
upperback 0.756283 2.75084 -1.54256
thorax -4.9372 1.40918 0.1967
lowerneck -17.3714 -7.47054 -14.231
upperneck 28.9365 -10.418 11.0634
head 14.1896 -4.86033 4.99157
rclavicle -9.20994e-014 6.75868e-015
rhumerus -33.0862 -16.9486 -80.6788
rradius 27.1875
rwrist 10.0299
rhand -14.3003 8.66854
rfingers 7.12502
rthumb 11.8395 -20.9768
lclavicle -9.20994e-014 6.75868e-015
lhumerus -37.194 7.65963 79.6221
lradius 26.8928
lwrist -8.50004
lhand -18.477 26.5282
lfingers 7.12502
lthumb 7.80997 56.364
rfemur -6.42354 -4.50249 16.2721
rtibia 66.1985
rfoot 14.196 2.94237
rtoes 14.6913
lfemur 1.66189 -0.970054 -26.596
ltibia 1.84198
lfoot 1.53974 -13.8364
ltoes -9.53672
230
root -0.919025 17.9763 7.07739 -18.1017 -65.4381 16.2444
lowerback 10.0372 2.40632 -3.94238
upperback 0.807425 2.63993 -1.5515
thorax -4.89168 1.35361 0.224455
lowerneck -17.5684 -7.28361 -13.7316
upperneck 29.1257 -10.1174 10.546
head 14.1938 -4.73417 4.75069
rclavicle -7.24446e-014 -1.78906e-015
rhumerus -33.3328 -16.621 -80.7369
rradius 27.2375
rwrist 10.1447
rhand -14.4068 8.42089
rfingers 7.12502
rthumb 11.7368 -21.2303
lclavicle -7.24446e-014 -1.78906e-015
lhumerus -36.7595 7.86898 79.3868
lradius 26.8298
lwrist -8.89541
lhand -18.265 26.6445
lfingers 7.12502
lthumb 8.01456 56.4726
rfemur -7.56793 -5.13781 16.0789
rtibia 67.7305
rfoot 12.1411 1.92214
rtoes 12.716
lfemur 3.20665 -0.80449 -26.7002
ltibia -5.86415e-015
lfoot 2.05418 -13.819
ltoes -9.22241
231
root -1.03847 17.9869 7.14374 -18.3492 -65.7913 16.4715
lowerback 9.93321 2.36369 -3.97372
upperback 0.845471 2.5865 -1.54936
thorax -4.79327 1.32634 0.257419
lowerneck -17.6421 -7.16274 -13.3361
upperneck 29.1814 -9.93982 10.1858
head 14.1537 -4.65664 4.56719
rclavicle 1.29285e-013 8.34896e-015
rhumerus -33.622 -16.1178 -80.8319
rradius 27.4185
rwrist 10.0712
rhand -14.4552 8.13334
rfingers 7.12502
rthumb 11.6902 -21.5205
lclavicle 1.29285e-013 8.34896e-015
lhumerus -36.3198 7.86109 79.2066
lradius 26.7576
lwrist -9.09551
lhand -17.9772 26.7689
lfingers 7.12502
lthumb 8.29235 56.5862
rfemur -8.75713 -5.6905 15.9444
rtibia 69.0376
rfoot 10.1321 1.07618
rtoes 11.1976
lfemur 3.74186 -0.552884 -26.7333
ltibia -1.43125e-014
lfoot 1.80878 -13.5062
ltoes -7.84826
232
root -1.15576 17.9957 7.21005 -18.6732 -66.1187 16.7381
lowerback 9.93343 2.31808 -4.0494
upperback 0.85081 2.52106 -1.48623
thorax -4.79159 1.2962 0.374959
lowerneck -17.6498 -7.15616 -13.4402
upperneck 29.1808 -9.91963 10.2475
head 14.1631 -4.65282 4.61442
rclavicle -1.5381e-014 5.96354e-015
rhumerus -33.9276 -15.923 -80.6838
rradius 27.4616
rwrist 10.3033
rhand -14.4653 8.21277
rfingers 7.12502
rthumb 11.6804 -21.4416
lclavicle -1.5381e-014 5.96354e-015
lhumerus -36.001 7.97074 79.1518
lradius 26.7568
lwrist -9.04998
lhand -18.1349 26.913
lfingers 7.12502
lthumb 8.14018 56.7362
rfemur -9.86561 -6.25603 15.799
rtibia 70.1332
rfoot 8.13526 0.167789
rtoes 9.14993
lfemur 4.31595 -0.316168 -26.8173
ltibia -3.18055e-015
lfoot 1.36724 -13.2328
ltoes -7.80334
233
root -1.27009 17.9983 7.27923 -19.1988 -66.3446 17.2322
lowerback 9.92646 2.23264 -4.19602
upperback 0.882282 2.39248 -1.47347
thorax -4.75642 1.23463 0.489795
lowerneck -17.7319 -7.17851 -13.6746
upperneck 29.1375 -9.96137 10.5347
head 14.2042 -4.65927 4.76388
rclavicle 1.76049e-014 6.36111e-015
rhumerus -34.1635 -16.1912 -80.3833
rradius 27.4121
rwrist 10.9612
rhand -14.4417 8.39904
rfingers 7.12502
rthumb 11.7032 -21.2541
lclavicle 1.76049e-014 6.36111e-015
lhumerus -35.8137 8.36001 78.9917
lradius 26.9741
lwrist -9.22928
lhand -18.3316 27.0829
lfingers 7.12502
lthumb 7.95025 56.9134
rfemur -10.9591 -6.61277 15.6164
rtibia 71.0559
rfoot 6.23339 -0.865672
rtoes 8.76907
lfemur 4.89505 -0.145585 -27.0546
ltibia -4.37326e-015
lfoot 0.851862 -12.9455
ltoes -8.71293
234
root -1.38127 17.9992 7.34721 -19.4555 -66.5101 17.4756
lowerback 9.93772 2.10706 -4.18002
upperback 0.878643 2.22597 -1.48334
thorax -4.75851 1.15207 0.494002
lowerneck -17.7722 -7.15627 -13.6772
upperneck 29.1334 -9.93462 10.5639
head 14.2089 -4.64419 4.78083
rclavicle 8.32411e-015 -2.78299e-015
rhumerus -34.5133 -16.161 -80.2345
rradius 27.5605
rwrist 11.0432
rhand -14.5095 8.28841
rfingers 7.12502
rthumb 11.6378 -21.3684
lclavicle 8.32411e-015 -2.78299e-015
lhumerus -35.7323 9.08551 78.6411
lradius 27.2618
lwrist -9.78217
lhand -18.2082 27.1651
lfingers 7.12502
lthumb 8.06938 56.991
rfemur -12.0814 -6.92609 15.5615
rtibia 71.7971
rfoot 4.72167 -1.88474
rtoes 9.96828
lfemur 5.42964 -0.0678009 -27.1806
ltibia -1.86858e-014
lfoot 0.589418 -12.5953
ltoes -8.22897
235
root -1.49414 18.0007 7.4146 -19.6873 -66.5967 17.6235
lowerback 9.98736 1.97408 -4.17024
upperback 0.90846 2.0497 -1.45376
thorax -4.74834 1.06455 0.543708
lowerneck -17.8237 -7.1326 -13.7008
upperneck 29.1398 -9.87628 10.5341
head 14.213 -4.62427 4.78304
rclavicle 4.80935e-014 -5.1684e-015
rhumerus -34.8886 -15.63 -80.2082
rradius 27.8426
rwrist 10.4764
rhand -14.4912 8.10226
rfingers 7.12502
rthumb 11.6554 -21.5536
lclavicle 4.80935e-014 -5.1684e-015
lhumerus -35.5768 9.5922 78.4807
lradius 27.5194
lwrist -9.8247
lhand -18.5488 27.3484
lfingers 7.12502
lthumb 7.74067 57.1867
rfemur -13.0534 -7.41088 15.4602
rtibia 72.3391
rfoot 3.48859 -2.50472
rtoes 10.8943
lfemur 6.00641 -0.0677711 -27.2937
ltibia -2.8625e-014
lfoot 0.372248 -12.2359
ltoes -6.76638
236
root -1.60791 17.9982 7.48288 -19.8507 -66.8814 17.6328
lowerback 10.0661 1.88368 -4.0857
upperback 0.951599 1.94105 -1.35736
thorax -4.74294 1.00967 0.61097
lowerneck -17.9866 -7.09762 -13.7391
upperneck 29.2363 -9.79655 10.5196
head 14.2798 -4.59255 4.79994
rclavicle 7.45815e-014 -1.86858e-014
rhumerus -35.2718 -14.8639 -80.1884
rradius 28.1351
rwrist 9.70153
rhand -14.509 8.08552
rfingers 7.12502
rthumb 11.6383 -21.5713
lclavicle 7.45815e-014 -1.86858e-014
lhumerus -35.3802 9.68925 78.5228
lradius 27.7246
lwrist -9.39721
lhand -18.7871 27.2578
lfingers 7.12502
lthumb 7.51066 57.1044
rfemur -13.9519 -7.70036 15.4766
rtibia 72.7104
rfoot 2.37996 -2.6243
rtoes 11.8966
lfemur 6.64129 0.107576 -27.2974
ltibia -2.22639e-014
lfoot -0.00326381 -11.98
ltoes -6.52816
237
root -1.7167 17.9901 7.54731 -20.0722 -67.236 17.7739
lowerback 10.1094 1.80756 -4.05353
upperback 0.985085 1.84704 -1.26502
thorax -4.72997 0.963028 0.702167
lowerneck -18.1395 -7.02576 -13.6579
upperneck 29.3281 -9.65294 10.3658
head 14.3147 -4.53732 4.75019
rclavicle 3.34207e-014 -2.26615e-014
rhumerus -35.3936 -15.0306 -79.9121
rradius 27.9865
rwrist 9.98214
rhand -14.564 8.24428
rfingers 7.12502
rthumb 11.5852 -21.4155
lclavicle 3.34207e-014 -2.26615e-014
lhumerus -35.1691 9.55047 78.6576
lradius 27.943
lwrist -8.85095
lhand -18.9013 27.3449
lfingers 7.12502
lthumb 7.40047 57.1955
rfemur -14.945 -7.96104 15.4791
rtibia 72.9411
rfoot 1.31482 -2.5375
rtoes 12.7655
lfemur 7.21353 0.358288 -27.3156
ltibia 4.77083e-015
lfoot -0.45153 -11.7699
ltoes -7.8139
